<?xml version="1.0" encoding="utf-8"?>
<!-- Generator: Adobe Illustrator 16.0.3, SVG Export Plug-In . SVG Version: 6.00 Build 0)  -->
<!DOCTYPE svg PUBLIC "-//W3C//DTD SVG 1.1//EN" "http://www.w3.org/Graphics/SVG/1.1/DTD/svg11.dtd">
<svg version="1.1" id="Capa_1" xmlns="http://www.w3.org/2000/svg" xmlns:xlink="http://www.w3.org/1999/xlink" x="0px" y="0px"
	 width="200px" height="80px" viewBox="0 0 200 80" enable-background="new 0 0 200 80" xml:space="preserve">
<g>
	<g>
		<path fill="#009DCA" d="M31.796,64.443c-7.053,0-13.848-2.658-18.994-7.607C7.701,51.934,4.895,45.42,4.895,38.483
			c0-6.935,2.806-13.451,7.908-18.355c5.091-4.901,11.866-7.601,19.069-7.601c7.205,0,13.985,2.7,19.076,7.601
			c6.952,6.689,9.57,16.495,6.84,25.591c-0.581,1.939-2.699,3.059-4.717,2.496c-2.017-0.566-3.186-2.592-2.599-4.533
			c1.962-6.528,0.08-13.571-4.905-18.374c-3.649-3.522-8.519-5.458-13.696-5.458c-5.166,0-10.03,1.936-13.696,5.458
			c-3.655,3.518-5.667,8.197-5.667,13.175c0,4.977,2.013,9.65,5.667,13.175c4.803,4.615,11.614,6.473,18.222,4.945
			c2.052-0.477,4.105,0.742,4.585,2.709c0.496,1.967-0.768,3.939-2.811,4.41C36.048,64.211,33.92,64.443,31.796,64.443z"/>
	</g>
	<g>
		<path fill="#009DCA" d="M56.074,65.426c-0.976,0-1.945-0.355-2.694-1.066L28.172,40.096c-1.486-1.428-1.486-3.747,0-5.178
			c1.481-1.428,3.892-1.428,5.378,0l25.214,24.263c1.487,1.426,1.487,3.748,0,5.178C58.02,65.07,57.045,65.426,56.074,65.426z"/>
	</g>
</g>
<text transform="matrix(1.0393 0 0 1 60.6055 57.0586)" fill="#EDEDEB" font-family="'eacologica-round_slab'" font-size="31.6771">uality </text>
<text transform="matrix(0.9744 0 0 1 136.376 38.4858)" fill="#009EE2" font-family="'eacologica-round_slab'" font-size="12.9994">TechLab</text>
</svg>
